<svg width="184" height="184" viewBox="0 0 184 184" fill="none" xmlns="http://www.w3.org/2000/svg">
<g clip-path="url(#clip0_0_169)">
<path fill-rule="evenodd" clip-rule="evenodd" d="M100.554 96.9526C103.841 95.6414 106.27 94.0434 108.06 92.6951C125.128 79.7334 121.402 59.5506 112.467 43.0689C110.075 38.6515 104.915 32.6885 99.1954 30.0143C95.1768 28.1335 90.8939 27.8424 87.0274 30.5653C82.8013 33.518 80.8055 39.0224 80.2553 45.238C79.4524 54.2273 81.6372 64.6988 83.8143 70.4742C86.3273 77.135 91.312 86.9898 97.4216 95.9535C93.7655 97.0886 89.2036 97.8302 83.5035 97.605C80.9696 97.514 78.1192 96.7521 75.2265 95.5387C76.6827 90.9898 77.3046 85.9499 76.9306 80.5804C76.6099 76.0673 74.1587 66.7198 69.9933 60.4379C67.0164 55.956 63.1534 53.0621 58.6665 53.9626C53.096 55.0891 50.7548 58.9895 50.3143 63.77C49.6906 70.501 52.9901 79.0263 55.841 83.1663C59.1605 87.9811 65.8834 93.3167 72.7346 96.575C67.0048 111.687 51.3301 120.526 33.5956 116.275C33.0667 116.154 32.5275 116.485 32.3898 117.013C32.265 117.553 32.6029 118.099 33.1318 118.22C51.8967 122.715 68.5032 113.385 74.585 97.4014C77.6669 98.6855 80.72 99.5047 83.4274 99.6041C89.7066 99.848 94.6823 98.9784 98.6138 97.6717C99.7869 99.3313 100.999 100.952 102.246 102.511C107.844 109.519 114.047 115.139 119.96 116.997C133.624 121.292 145.398 114.507 152.755 103.746C160.037 93.0854 162.949 78.5563 159.119 67.3396C158.94 66.8168 158.366 66.5331 157.847 66.7145C157.327 66.896 157.046 67.4629 157.225 67.9856C160.871 78.6595 158.042 92.4815 151.104 102.616C144.239 112.651 133.302 119.092 120.565 115.093C114.937 113.315 109.129 107.922 103.808 101.262C102.7 99.8752 101.617 98.4365 100.554 96.9526ZM73.3772 94.711C74.708 90.4434 75.2836 85.7359 74.9273 80.7126C74.6231 76.4168 72.3034 67.5355 68.3213 61.5381C65.8536 57.8205 62.7847 55.1719 59.0664 55.9275C54.519 56.8366 52.6685 60.0645 52.3087 63.9588C51.7127 70.2203 54.8311 78.1729 57.4918 82.0352C60.6074 86.5602 66.932 91.6184 73.3772 94.711ZM99.3771 95.2712C102.672 94.0039 105.084 92.4235 106.849 91.1001C123.034 78.8132 119.176 59.6451 110.708 44.0218C108.483 39.9064 103.691 34.3282 98.3467 31.8245C94.9973 30.2621 91.4073 29.9279 88.1726 32.2009C84.3847 34.8454 82.739 39.8436 82.2416 45.4087C81.4667 54.0841 83.5905 64.2008 85.6874 69.7705C88.2002 76.4316 93.2186 86.3304 99.3771 95.2712Z" fill="#8568D8"/>
<path fill-rule="evenodd" clip-rule="evenodd" d="M34.2776 117.366C35.2106 116.952 37.8913 115.753 38.2915 115.561C39.409 115.015 39.8924 114.584 40.3342 114.09C40.6837 113.688 40.9917 113.224 41.7376 112.557C42.1534 112.193 42.1729 111.549 41.8025 111.14C41.4322 110.731 40.8058 110.707 40.39 111.071C39.7234 111.686 39.3557 112.132 39.0387 112.527C38.667 112.976 38.3604 113.309 37.4131 113.762C36.9544 113.987 34.2659 114.96 33.1354 115.649C32.5441 116.006 32.2531 116.427 32.1881 116.674C32.0945 117.028 32.118 117.472 32.3376 117.98C32.6222 118.631 33.2952 119.518 34.0268 120.527C34.7168 121.474 35.4756 122.561 35.9356 123.712C36.3163 124.683 36.4749 125.694 36.0513 126.689C35.8317 127.194 36.0552 127.777 36.562 127.998C37.0687 128.218 37.6625 127.988 37.8821 127.483C38.5396 125.994 38.3721 124.446 37.7913 122.974C37.2754 121.671 36.4347 120.432 35.6446 119.351C35.1755 118.703 34.7246 118.114 34.414 117.619C34.3633 117.54 34.3205 117.453 34.2776 117.366Z" fill="#8568D8"/>
</g>
<defs>
<clipPath id="clip0_0_169">
<rect width="130" height="130" fill="white" transform="translate(91.9238) rotate(45)"/>
</clipPath>
</defs>
</svg>
