<svg width="312" height="313" viewBox="0 0 312 313" fill="none" xmlns="http://www.w3.org/2000/svg">
<g clip-path="url(#clip0_0_14)">
<path fill-rule="evenodd" clip-rule="evenodd" d="M33.0518 109.664C47.0278 133.597 70.0779 150.051 96.6531 160.673C136.787 176.713 184.968 179.463 222.522 174.345C246.125 171.131 261.019 161.066 283.264 152.874C284.165 152.543 285.164 153.004 285.495 153.905C285.828 154.802 285.366 155.805 284.466 156.132C261.96 164.42 246.869 174.536 222.99 177.789C184.913 182.978 136.061 180.162 95.3633 163.899C68.0549 152.984 44.4147 136.012 30.0512 111.417C29.567 110.588 29.8438 109.526 30.6723 109.042C31.5008 108.557 32.5676 108.835 33.0518 109.664Z" fill="black"/>
<path fill-rule="evenodd" clip-rule="evenodd" d="M289.627 155.257C289.549 155.291 289.024 155.504 288.604 155.73C286.858 156.654 283.949 158.55 280.422 161.16C268.6 169.928 249.867 186.714 245.168 202.672C244.896 203.593 243.93 204.117 243.01 203.845C242.089 203.574 241.56 202.612 241.831 201.691C246.721 185.087 266.052 167.49 278.355 158.37C280.003 157.149 281.525 156.074 282.869 155.177C277.935 155.203 273.011 155.357 268.077 155.566C253.873 156.173 241.459 153.756 228.242 148.235C227.358 147.869 226.939 146.847 227.31 145.964C227.676 145.081 228.698 144.661 229.58 145.032C242.303 150.344 254.255 152.678 267.927 152.096C274.375 151.824 280.813 151.648 287.267 151.712C287.909 151.718 289.578 151.753 289.811 151.795C291.14 152.031 291.255 153.17 291.267 153.423C291.274 153.545 291.274 155.064 289.627 155.257ZM289.099 151.824C289.144 151.819 289.191 151.811 289.241 151.807C289.2 151.808 289.154 151.817 289.099 151.824Z" fill="black"/>
</g>
<defs>
<clipPath id="clip0_0_14">
<rect width="265.456" height="265.456" fill="white" transform="matrix(-0.193843 0.981033 0.981033 0.193843 51.5795 0.212402)"/>
</clipPath>
</defs>
</svg>
